<svg xmlns="http://www.w3.org/2000/svg" xmlns:xlink="http://www.w3.org/1999/xlink" width="500" zoomAndPan="magnify" viewBox="0 0 375 374.999991" height="500" preserveAspectRatio="xMidYMid meet" version="1.0"><defs><clipPath id="7f1b385a81"><path d="M 55.351562 236.15625 L 187.417969 236.15625 L 187.417969 351.714844 L 55.351562 351.714844 Z M 55.351562 236.15625 " clip-rule="nonzero"/></clipPath><clipPath id="0a19d861c2"><path d="M 121.382812 351.714844 L 55.351562 236.15625 L 187.417969 236.15625 Z M 121.382812 351.714844 " clip-rule="nonzero"/></clipPath><clipPath id="bdd509fcbe"><path d="M 55.417969 236.214844 L 187.414062 236.214844 L 187.414062 351.714844 L 55.417969 351.714844 Z M 55.417969 236.214844 " clip-rule="nonzero"/></clipPath><clipPath id="702447fa2e"><path d="M 121.386719 351.714844 L 55.359375 236.167969 L 187.414062 236.167969 Z M 121.386719 351.714844 " clip-rule="nonzero"/></clipPath><clipPath id="566cb5b076"><path d="M 121.390625 176.207031 L 321.757812 176.207031 L 321.757812 351.726562 L 121.390625 351.726562 Z M 121.390625 176.207031 " clip-rule="nonzero"/></clipPath><clipPath id="a36b68340b"><path d="M 221.574219 176.207031 L 321.757812 176.207031 L 221.574219 351.726562 L 121.390625 351.726562 Z M 221.574219 176.207031 " clip-rule="nonzero"/></clipPath><clipPath id="2470ed520a"><path d="M 121.390625 176.207031 L 321.640625 176.207031 L 321.640625 351.707031 L 121.390625 351.707031 Z M 121.390625 176.207031 " clip-rule="nonzero"/></clipPath><clipPath id="d73ac00fca"><path d="M 221.570312 176.207031 L 321.746094 176.207031 L 221.570312 351.71875 L 121.390625 351.71875 Z M 221.570312 176.207031 " clip-rule="nonzero"/></clipPath><clipPath id="0f45147898"><path d="M 187.574219 23.273438 L 319.640625 23.273438 L 319.640625 138.832031 L 187.574219 138.832031 Z M 187.574219 23.273438 " clip-rule="nonzero"/></clipPath><clipPath id="de67f839f3"><path d="M 253.609375 23.273438 L 319.640625 138.832031 L 187.574219 138.832031 Z M 253.609375 23.273438 " clip-rule="nonzero"/></clipPath><clipPath id="602bf6f5c9"><path d="M 187.578125 23.273438 L 319.574219 23.273438 L 319.574219 138.773438 L 187.578125 138.773438 Z M 187.578125 23.273438 " clip-rule="nonzero"/></clipPath><clipPath id="1f597b507a"><path d="M 253.605469 23.273438 L 319.628906 138.820312 L 187.578125 138.820312 Z M 253.605469 23.273438 " clip-rule="nonzero"/></clipPath><clipPath id="cc8a3b3854"><path d="M 53.234375 23.269531 L 253.597656 23.269531 L 253.597656 198.785156 L 53.234375 198.785156 Z M 53.234375 23.269531 " clip-rule="nonzero"/></clipPath><clipPath id="1b6bd6ce98"><path d="M 153.417969 198.785156 L 53.234375 198.785156 L 153.417969 23.269531 L 253.597656 23.269531 Z M 153.417969 198.785156 " clip-rule="nonzero"/></clipPath><clipPath id="95adde3dea"><path d="M 53.347656 23.285156 L 253.597656 23.285156 L 253.597656 198.785156 L 53.347656 198.785156 Z M 53.347656 23.285156 " clip-rule="nonzero"/></clipPath><clipPath id="9a47092210"><path d="M 153.421875 198.785156 L 53.242188 198.785156 L 153.421875 23.273438 L 253.597656 23.273438 Z M 153.421875 198.785156 " clip-rule="nonzero"/></clipPath></defs><g clip-path="url(#7f1b385a81)"><g clip-path="url(#0a19d861c2)"><path fill="#eceff1" d="M 187.417969 351.714844 L 55.351562 351.714844 L 55.351562 236.15625 L 187.417969 236.15625 Z M 187.417969 351.714844 " fill-opacity="1" fill-rule="nonzero"/></g></g><g clip-path="url(#bdd509fcbe)"><g clip-path="url(#702447fa2e)"><path stroke-linecap="butt" transform="matrix(-0.75, 0, 0, -0.75, 187.414855, 351.713619)" fill="none" stroke-linejoin="miter" d="M 88.03752 -0.00163259 L 176.073984 154.060878 L 0.00105612 154.060878 Z M 88.03752 -0.00163259 " stroke="#eceff1" stroke-width="16" stroke-opacity="1" stroke-miterlimit="4"/></g></g><g clip-path="url(#566cb5b076)"><g clip-path="url(#a36b68340b)"><path fill="#cfd8dc" d="M 121.390625 176.207031 L 321.757812 176.207031 L 321.757812 351.726562 L 121.390625 351.726562 Z M 121.390625 176.207031 " fill-opacity="1" fill-rule="nonzero"/></g></g><g clip-path="url(#2470ed520a)"><g clip-path="url(#d73ac00fca)"><path stroke-linecap="butt" transform="matrix(0.75, 0, 0, 0.75, 121.39203, 176.20622)" fill="none" stroke-linejoin="miter" d="M 133.571052 0.00108216 L 267.138769 0.00108216 L 133.571052 234.016723 L -0.0018735 234.016723 Z M 133.571052 0.00108216 " stroke="#cfd8dc" stroke-width="16" stroke-opacity="1" stroke-miterlimit="4"/></g></g><g clip-path="url(#0f45147898)"><g clip-path="url(#de67f839f3)"><path fill="#eceff1" d="M 187.574219 23.273438 L 319.640625 23.273438 L 319.640625 138.832031 L 187.574219 138.832031 Z M 187.574219 23.273438 " fill-opacity="1" fill-rule="nonzero"/></g></g><g clip-path="url(#602bf6f5c9)"><g clip-path="url(#1f597b507a)"><path stroke-linecap="butt" transform="matrix(0.75, 0, 0, 0.75, 187.577174, 23.275005)" fill="none" stroke-linejoin="miter" d="M 88.037732 -0.00209036 L 176.068988 154.06042 L 0.00126829 154.06042 Z M 88.037732 -0.00209036 " stroke="#eceff1" stroke-width="16" stroke-opacity="1" stroke-miterlimit="4"/></g></g><g clip-path="url(#cc8a3b3854)"><g clip-path="url(#1b6bd6ce98)"><path fill="#cfd8dc" d="M 253.597656 198.785156 L 53.234375 198.785156 L 53.234375 23.269531 L 253.597656 23.269531 Z M 253.597656 198.785156 " fill-opacity="1" fill-rule="nonzero"/></g></g><g clip-path="url(#95adde3dea)"><g clip-path="url(#9a47092210)"><path stroke-linecap="butt" transform="matrix(-0.75, 0, 0, -0.75, 253.599333, 198.786563)" fill="none" stroke-linejoin="miter" d="M 133.569953 0.0018756 L 267.142879 0.0018756 L 133.569953 234.017516 L 0.00223626 234.017516 Z M 133.569953 0.0018756 " stroke="#cfd8dc" stroke-width="16" stroke-opacity="1" stroke-miterlimit="4"/></g></g></svg>